<svg xmlns="http://www.w3.org/2000/svg" aria-hidden="true" style="position:absolute;width:0;height:0;overflow:hidden">
  <defs>
    <symbol id="icon-instagram" viewBox="0 0 32 32">
      <path d="M17.645.002c1.168-.004 2.335.007 3.502.035l.31.011c.358.013.712.029 1.139.048 1.702.08 2.864.349 3.883.744a7.789 7.789 0 0 1 2.835 1.846 7.857 7.857 0 0 1 1.845 2.833c.395 1.019.664 2.182.744 3.885.019.426.035.781.048 1.139l.01.31c.028 1.167.041 2.334.037 3.501L32 15.548v2.096c.004 1.168-.008 2.335-.037 3.502l-.01.31c-.013.358-.029.712-.048 1.139-.08 1.702-.352 2.864-.745 3.883a7.817 7.817 0 0 1-1.845 2.835 7.865 7.865 0 0 1-2.835 1.845c-1.019.395-2.181.664-3.883.744-.427.019-.781.035-1.139.048l-.31.01c-1.167.028-2.335.041-3.502.037l-3.288.002c-1.168.004-2.335-.008-3.502-.037l-.31-.01c-.38-.014-.759-.03-1.139-.048-1.702-.08-2.864-.352-3.885-.745a7.814 7.814 0 0 1-2.833-1.845 7.846 7.846 0 0 1-1.846-2.835C.448 25.46.179 24.298.099 22.596c-.018-.38-.034-.759-.048-1.139l-.008-.31a127.781 127.781 0 0 1-.04-3.502v-3.289c-.004-1.167.007-2.334.035-3.501l.011-.31c.013-.358.029-.714.048-1.139.08-1.704.349-2.864.744-3.885A7.82 7.82 0 0 1 2.69 2.689 7.84 7.84 0 0 1 5.522.841C6.543.446 7.703.177 9.407.097l1.139-.048.31-.008c1.167-.029 2.334-.043 3.501-.04l3.289.002zm-1.645 8a8.006 8.006 0 0 0-5.73 2.302A7.99 7.99 0 0 0 7.887 16a8.005 8.005 0 0 0 5.017 7.423 8.006 8.006 0 0 0 3.096.576 8.002 8.002 0 0 0 8-8 7.994 7.994 0 0 0-8-7.998zm0 3.2a4.79 4.79 0 0 1 3.45 1.374 4.81 4.81 0 0 1 1.438 3.425 4.794 4.794 0 0 1-1.437 3.425 4.793 4.793 0 0 1-3.45 1.375 4.8 4.8 0 0 1 0-9.6l-.002.002zm8.4-5.6a2 2 0 0 0 0 3.998 2 2 0 0 0 0-4v.003z" />
    </symbol>
    <symbol id="icon-twitter" viewBox="0 0 32 32">
      <path d="M16 0c8.846 0 16 7.154 16 16s-7.154 16-16 16S0 24.846 0 16 7.154 0 16 0zm-2.926 24.434c7.086 0 10.971-5.874 10.971-10.971v-.503a7.665 7.665 0 0 0 1.92-2.011 8.832 8.832 0 0 1-2.217.617 3.807 3.807 0 0 0 1.691-2.126 8.352 8.352 0 0 1-2.446.937 3.85 3.85 0 0 0-2.811-1.211 3.873 3.873 0 0 0-3.863 3.863c0 .297.023.594.114.868a10.955 10.955 0 0 1-7.954-4.023 3.979 3.979 0 0 0-.526 1.943 3.86 3.86 0 0 0 1.714 3.2c-.64 0-1.234-.183-1.737-.48v.046a3.875 3.875 0 0 0 3.086 3.794c-.32.092-.663.137-1.006.137-.251 0-.48-.023-.731-.069a3.838 3.838 0 0 0 3.589 2.674 7.811 7.811 0 0 1-4.8 1.646c-.32 0-.617 0-.914-.046a10.824 10.824 0 0 0 5.897 1.737z" />
    </symbol>
    <symbol id="icon-facebook" viewBox="0 0 32 32">
      <path d="M32 16.04C32 7.186 24.832 0 16 0S0 7.186 0 16.04c0 7.763 5.504 14.228 12.8 15.719V20.852H9.6V16.04h3.2v-4.01c0-3.096 2.512-5.614 5.6-5.614h4v4.812h-3.2c-.88 0-1.6.722-1.6 1.604v3.208h4.8v4.812h-4.8V32c8.08-.802 14.4-7.635 14.4-15.96z" />
    </symbol>
  </defs>
</svg>